<mxfile host="app.diagrams.net" modified="2023-12-18T11:26:38.058Z" agent="Mozilla/5.0 (Windows NT 10.0; Win64; x64) AppleWebKit/537.36 (KHTML, like Gecko) Chrome/120.0.0.0 Safari/537.36" etag="HVBOaAw7FTczQZjR53Pa" version="22.1.11" type="github">
  <diagram name="Page-1" id="Nwj5gcLWeEALXsEh9GSG">
    <mxGraphModel dx="866" dy="454" grid="1" gridSize="10" guides="1" tooltips="1" connect="1" arrows="1" fold="1" page="1" pageScale="1" pageWidth="850" pageHeight="1100" math="0" shadow="0">
      <root>
        <mxCell id="0" />
        <mxCell id="1" parent="0" />
        <mxCell id="CmB2vvX18PdY5mKfWEKx-6" value="" style="edgeStyle=orthogonalEdgeStyle;rounded=0;orthogonalLoop=1;jettySize=auto;html=1;entryX=0.5;entryY=0;entryDx=0;entryDy=0;fontSize=15;" edge="1" parent="1" source="CmB2vvX18PdY5mKfWEKx-4" target="CmB2vvX18PdY5mKfWEKx-8">
          <mxGeometry relative="1" as="geometry">
            <mxPoint x="135" y="170" as="targetPoint" />
          </mxGeometry>
        </mxCell>
        <mxCell id="CmB2vvX18PdY5mKfWEKx-4" value="&lt;font style=&quot;font-size: 15px;&quot;&gt;Begin&lt;/font&gt;" style="strokeWidth=2;html=1;shape=mxgraph.flowchart.terminator;whiteSpace=wrap;fontSize=15;" vertex="1" parent="1">
          <mxGeometry x="80" y="60" width="110" height="60" as="geometry" />
        </mxCell>
        <mxCell id="CmB2vvX18PdY5mKfWEKx-14" value="" style="edgeStyle=orthogonalEdgeStyle;rounded=0;orthogonalLoop=1;jettySize=auto;html=1;fontSize=15;" edge="1" parent="1" source="CmB2vvX18PdY5mKfWEKx-8" target="CmB2vvX18PdY5mKfWEKx-10">
          <mxGeometry relative="1" as="geometry" />
        </mxCell>
        <mxCell id="CmB2vvX18PdY5mKfWEKx-8" value="Input Scores" style="shape=process;whiteSpace=wrap;html=1;backgroundOutline=1;fontSize=15;" vertex="1" parent="1">
          <mxGeometry x="75" y="180" width="120" height="60" as="geometry" />
        </mxCell>
        <mxCell id="CmB2vvX18PdY5mKfWEKx-13" value="" style="edgeStyle=orthogonalEdgeStyle;rounded=0;orthogonalLoop=1;jettySize=auto;html=1;fontSize=15;" edge="1" parent="1" source="CmB2vvX18PdY5mKfWEKx-10" target="CmB2vvX18PdY5mKfWEKx-11">
          <mxGeometry relative="1" as="geometry" />
        </mxCell>
        <mxCell id="CmB2vvX18PdY5mKfWEKx-10" value="Calculate Scores" style="shape=process;whiteSpace=wrap;html=1;backgroundOutline=1;fontSize=15;" vertex="1" parent="1">
          <mxGeometry x="75" y="280" width="120" height="60" as="geometry" />
        </mxCell>
        <mxCell id="CmB2vvX18PdY5mKfWEKx-16" value="" style="edgeStyle=orthogonalEdgeStyle;rounded=0;orthogonalLoop=1;jettySize=auto;html=1;fontSize=15;" edge="1" parent="1" source="CmB2vvX18PdY5mKfWEKx-11" target="CmB2vvX18PdY5mKfWEKx-15">
          <mxGeometry relative="1" as="geometry" />
        </mxCell>
        <mxCell id="CmB2vvX18PdY5mKfWEKx-11" value="Display Grades" style="shape=process;whiteSpace=wrap;html=1;backgroundOutline=1;fontSize=15;" vertex="1" parent="1">
          <mxGeometry x="75" y="380" width="120" height="60" as="geometry" />
        </mxCell>
        <mxCell id="CmB2vvX18PdY5mKfWEKx-15" value="&lt;font style=&quot;font-size: 15px;&quot;&gt;End&lt;/font&gt;" style="strokeWidth=2;html=1;shape=mxgraph.flowchart.terminator;whiteSpace=wrap;fontSize=15;" vertex="1" parent="1">
          <mxGeometry x="80" y="490" width="110" height="60" as="geometry" />
        </mxCell>
        <mxCell id="CmB2vvX18PdY5mKfWEKx-19" value="" style="edgeStyle=orthogonalEdgeStyle;rounded=0;orthogonalLoop=1;jettySize=auto;html=1;exitX=0.5;exitY=1;exitDx=0;exitDy=0;exitPerimeter=0;fontSize=15;" edge="1" parent="1" source="CmB2vvX18PdY5mKfWEKx-17" target="CmB2vvX18PdY5mKfWEKx-18">
          <mxGeometry relative="1" as="geometry">
            <mxPoint x="425" y="110" as="sourcePoint" />
          </mxGeometry>
        </mxCell>
        <mxCell id="CmB2vvX18PdY5mKfWEKx-17" value="&lt;font style=&quot;font-size: 15px;&quot;&gt;Input Grades&lt;/font&gt;" style="strokeWidth=2;html=1;shape=mxgraph.flowchart.terminator;whiteSpace=wrap;fontSize=15;" vertex="1" parent="1">
          <mxGeometry x="360" y="60" width="130" height="60" as="geometry" />
        </mxCell>
        <mxCell id="CmB2vvX18PdY5mKfWEKx-23" value="" style="edgeStyle=orthogonalEdgeStyle;rounded=0;orthogonalLoop=1;jettySize=auto;html=1;fontSize=15;" edge="1" parent="1" source="CmB2vvX18PdY5mKfWEKx-18" target="CmB2vvX18PdY5mKfWEKx-21">
          <mxGeometry relative="1" as="geometry" />
        </mxCell>
        <mxCell id="CmB2vvX18PdY5mKfWEKx-18" value="Input Score 1" style="shape=parallelogram;perimeter=parallelogramPerimeter;whiteSpace=wrap;html=1;fixedSize=1;fontSize=15;" vertex="1" parent="1">
          <mxGeometry x="365" y="180" width="120" height="60" as="geometry" />
        </mxCell>
        <mxCell id="CmB2vvX18PdY5mKfWEKx-25" value="" style="edgeStyle=orthogonalEdgeStyle;rounded=0;orthogonalLoop=1;jettySize=auto;html=1;fontSize=15;" edge="1" parent="1" source="CmB2vvX18PdY5mKfWEKx-20" target="CmB2vvX18PdY5mKfWEKx-24">
          <mxGeometry relative="1" as="geometry" />
        </mxCell>
        <mxCell id="CmB2vvX18PdY5mKfWEKx-20" value="Input Score 3" style="shape=parallelogram;perimeter=parallelogramPerimeter;whiteSpace=wrap;html=1;fixedSize=1;fontSize=15;" vertex="1" parent="1">
          <mxGeometry x="365" y="380" width="120" height="60" as="geometry" />
        </mxCell>
        <mxCell id="CmB2vvX18PdY5mKfWEKx-22" value="" style="edgeStyle=orthogonalEdgeStyle;rounded=0;orthogonalLoop=1;jettySize=auto;html=1;entryX=0.5;entryY=0;entryDx=0;entryDy=0;fontSize=15;" edge="1" parent="1" source="CmB2vvX18PdY5mKfWEKx-21" target="CmB2vvX18PdY5mKfWEKx-20">
          <mxGeometry relative="1" as="geometry">
            <mxPoint x="425" y="380" as="targetPoint" />
          </mxGeometry>
        </mxCell>
        <mxCell id="CmB2vvX18PdY5mKfWEKx-21" value="Input Score 2" style="shape=parallelogram;perimeter=parallelogramPerimeter;whiteSpace=wrap;html=1;fixedSize=1;fontSize=15;" vertex="1" parent="1">
          <mxGeometry x="365" y="280" width="120" height="60" as="geometry" />
        </mxCell>
        <mxCell id="CmB2vvX18PdY5mKfWEKx-24" value="&lt;span style=&quot;font-size: 15px;&quot;&gt;Return&lt;/span&gt;" style="strokeWidth=2;html=1;shape=mxgraph.flowchart.terminator;whiteSpace=wrap;fontSize=15;" vertex="1" parent="1">
          <mxGeometry x="370" y="490" width="110" height="60" as="geometry" />
        </mxCell>
        <mxCell id="CmB2vvX18PdY5mKfWEKx-32" value="" style="edgeStyle=orthogonalEdgeStyle;rounded=0;orthogonalLoop=1;jettySize=auto;html=1;fontSize=15;" edge="1" parent="1" source="CmB2vvX18PdY5mKfWEKx-26" target="CmB2vvX18PdY5mKfWEKx-27">
          <mxGeometry relative="1" as="geometry" />
        </mxCell>
        <mxCell id="CmB2vvX18PdY5mKfWEKx-26" value="&lt;font style=&quot;font-size: 15px;&quot;&gt;Calculate Scores&lt;/font&gt;" style="strokeWidth=2;html=1;shape=mxgraph.flowchart.terminator;whiteSpace=wrap;fontSize=15;" vertex="1" parent="1">
          <mxGeometry x="640" y="60" width="130" height="60" as="geometry" />
        </mxCell>
        <mxCell id="CmB2vvX18PdY5mKfWEKx-31" value="" style="edgeStyle=orthogonalEdgeStyle;rounded=0;orthogonalLoop=1;jettySize=auto;html=1;fontSize=15;" edge="1" parent="1" source="CmB2vvX18PdY5mKfWEKx-27" target="CmB2vvX18PdY5mKfWEKx-28">
          <mxGeometry relative="1" as="geometry" />
        </mxCell>
        <mxCell id="CmB2vvX18PdY5mKfWEKx-27" value="&amp;nbsp;Initial Average = Score 1 + Score 2 + Score 3" style="rounded=0;whiteSpace=wrap;html=1;fontSize=15;" vertex="1" parent="1">
          <mxGeometry x="627.5" y="170" width="155" height="90" as="geometry" />
        </mxCell>
        <mxCell id="CmB2vvX18PdY5mKfWEKx-30" value="" style="edgeStyle=orthogonalEdgeStyle;rounded=0;orthogonalLoop=1;jettySize=auto;html=1;fontSize=15;" edge="1" parent="1" source="CmB2vvX18PdY5mKfWEKx-28" target="CmB2vvX18PdY5mKfWEKx-29">
          <mxGeometry relative="1" as="geometry" />
        </mxCell>
        <mxCell id="CmB2vvX18PdY5mKfWEKx-28" value="Initial Average / 3" style="rounded=0;whiteSpace=wrap;html=1;fontSize=15;" vertex="1" parent="1">
          <mxGeometry x="630" y="320" width="150" height="80" as="geometry" />
        </mxCell>
        <mxCell id="CmB2vvX18PdY5mKfWEKx-29" value="&lt;span style=&quot;font-size: 15px;&quot;&gt;Return&lt;/span&gt;" style="strokeWidth=2;html=1;shape=mxgraph.flowchart.terminator;whiteSpace=wrap;fontSize=15;" vertex="1" parent="1">
          <mxGeometry x="650" y="460" width="110" height="60" as="geometry" />
        </mxCell>
      </root>
    </mxGraphModel>
  </diagram>
</mxfile>
